PathFileType	4	(X/Y/Z)	1H_nor_med_right.trc
DataRate	CameraRate	NumFrames	NumMarkers	Units	OrigDataRate	OrigDataStartFrame	OrigNumFrames
250.00	250.00	10	18	mm	250.00	2753	11009
Frame#	Time	c7	r_should	l_should	clavicle	r_upa	r_elb_l	r_elb_m	r_low	r_wri_l	r_wri_m	r_met	l_upa	l_elb_l	l_elb_m	l_low	l_wri_l	l_wri_m	l_met
	X1	Y1	Z1	X2	Y2	Z2	X3	Y3	Z3	X4	Y4	Z4	X5	Y5	Z5	X6	Y6	Z6	X7	Y7	Z7	X8	Y8	Z8	X9	Y9	Z9	X10	Y10	Z10	X11	Y11	Z11	X12	Y12	Z12	X13	Y13	Z13	X14	Y14	Z14	X15	Y15	Z15	X16	Y16	Z16	X17	Y17	Z17	X18	Y18	Z18
2753	11.00800	1224.97949	1424.72253	136.43704	1283.03894	1369.67090	281.55267	1231.05591	1363.27991	-42.21432	1334.21277	1286.79443	109.87868	1321.70959	1173.93469	361.07178	1333.04150	1093.56738	385.95862	1251.74426	1054.23169	366.60269	1376.70752	982.23547	342.12949	1412.97107	885.35370	284.51093	1370.83728	852.41345	338.48148	1463.79431	832.31866	300.62119	1210.41113	1153.38977	-105.47955	1211.06104	1045.85840	-125.20476	1168.42029	1034.45984	-33.92332	1214.44592	923.02881	-120.41228	1231.53760	805.29388	-98.59416	1153.47839	802.13214	-99.19640	1213.22034	727.61652	-139.97919
2754	11.01200	1224.99463	1424.71399	136.47728	1283.18298	1369.52466	281.62000	1230.59070	1363.73071	-42.33423	1334.22583	1286.79407	109.85371	1321.85510	1173.62402	360.82147	1333.23206	1093.09351	385.67361	1251.80493	1053.86377	366.28305	1376.62622	981.35974	342.23956	1412.71094	884.02271	285.14465	1370.41248	851.47974	339.24054	1463.68726	830.84186	301.70773	1210.39099	1153.41333	-105.48076	1211.03552	1045.88123	-125.21578	1168.42505	1034.47729	-33.91676	1214.40845	923.05048	-120.42677	1232.14771	804.60559	-97.79327	1153.43250	802.15436	-99.21685	1213.15649	727.65289	-140.03046
2755	11.01600	1225.00989	1424.70984	136.51526	1283.33203	1369.38293	281.68649	1229.56921	1364.71790	-42.62723	1334.23645	1286.78748	109.83113	1321.99719	1173.32605	360.57761	1333.45105	1092.61523	385.40372	1251.86658	1053.48035	365.97357	1376.55469	980.46802	342.35629	1412.42273	882.70477	285.76538	1369.95337	850.53955	339.96564	1464.08008	828.92780	303.00461	1210.37012	1153.43201	-105.47980	1211.01709	1045.89978	-125.21964	1168.41296	1034.50537	-33.91922	1214.37903	923.06781	-120.43890	1232.26978	804.44196	-97.61139	1153.38867	802.18701	-99.23534	1213.09790	727.68542	-140.07568
2756	11.02000	1225.03235	1424.70715	136.55460	1283.47498	1369.25208	281.75171	1229.29553	1364.98291	-42.68892	1334.24548	1286.78381	109.80143	1322.13123	1173.04163	360.33853	1333.65857	1092.12048	385.14542	1251.93604	1053.09229	365.66333	1376.47095	979.61584	342.46866	1412.14185	881.39246	286.38791	1369.42163	849.45471	340.64407	1463.75476	827.79749	304.65247	1210.34875	1153.45312	-105.48115	1211.00049	1045.92078	-125.22554	1168.40320	1034.52295	-33.92490	1214.34790	923.08844	-120.45927	1231.97241	804.73639	-97.95979	1153.34070	802.22058	-99.26097	1213.04297	727.71216	-140.11858
2757	11.02400	1225.05115	1424.69897	136.59042	1283.61230	1369.12207	281.81268	1229.20325	1365.06909	-42.69142	1334.25269	1286.78479	109.77890	1322.26587	1172.75513	360.10056	1333.83606	1091.66003	384.87842	1252.00793	1052.72083	365.33942	1376.38037	978.77563	342.59570	1411.85327	880.12256	287.01950	1368.89490	848.39246	341.41354	1463.12195	827.31714	306.38721	1210.32349	1153.48486	-105.48212	1210.98108	1045.94690	-125.22836	1168.39478	1034.54834	-33.92373	1214.31421	923.11774	-120.48759	1231.57288	805.14197	-98.44928	1153.29773	802.25153	-99.28647	1212.99292	727.73450	-140.15492
2758	11.02800	1225.06775	1424.68945	136.62517	1283.74988	1368.99023	281.87521	1229.15955	1365.11414	-42.67936	1334.26196	1286.78125	109.76186	1322.40540	1172.45337	359.85693	1334.01318	1091.22229	384.59470	1252.09058	1052.37170	365.00967	1376.30591	977.89954	342.72855	1411.55359	878.83197	287.65607	1368.49561	847.73096	342.14816	1462.69580	826.45819	306.26364	1210.29944	1153.51465	-105.48316	1210.95898	1045.96899	-125.23912	1168.39307	1034.57397	-33.92274	1214.27917	923.14404	-120.51740	1231.73669	804.94592	-98.22305	1153.25671	802.28162	-99.31558	1212.94592	727.75739	-140.19197
2759	11.03200	1225.08752	1424.68616	136.65613	1283.88635	1368.86658	281.93820	1229.12756	1365.14685	-42.66281	1334.26978	1286.78064	109.74044	1322.53601	1172.14575	359.60391	1334.19324	1090.76782	384.28122	1252.17102	1052.04456	364.67966	1376.23181	977.04419	342.85657	1411.24500	877.55505	288.26077	1368.04541	846.90112	342.87439	1462.27246	825.27216	306.89090	1210.27209	1153.54211	-105.48321	1210.93054	1045.99438	-125.24311	1168.38782	1034.59167	-33.92996	1214.24756	923.16498	-120.53844	1231.45459	805.22906	-98.56252	1153.21594	802.30768	-99.34579	1212.90088	727.78119	-140.23067
2760	11.03600	1225.10718	1424.68408	136.69504	1284.02478	1368.74133	282.00375	1229.10364	1365.17358	-42.64693	1334.27856	1286.78296	109.71530	1322.66980	1171.84668	359.35498	1334.35767	1090.30212	383.95752	1252.25488	1051.70850	364.33197	1376.15234	976.21667	342.97617	1410.91504	876.29181	288.88239	1367.57092	846.03381	343.56458	1461.84375	824.01337	307.71548	1210.24622	1153.56897	-105.47983	1210.90784	1046.01599	-125.24564	1168.37170	1034.61694	-33.93181	1214.21753	923.19598	-120.55956	1231.65234	804.98956	-98.30356	1153.18127	802.33392	-99.37732	1213.06543	727.33386	-139.80779
2761	11.04000	1225.12830	1424.68237	136.73810	1284.17126	1368.61584	282.07266	1229.08435	1365.19824	-42.62969	1334.28992	1286.78418	109.68546	1322.80176	1171.56238	359.11890	1334.52551	1089.86719	383.65085	1252.32935	1051.35303	363.96970	1376.06812	975.38843	343.11282	1410.58838	875.04956	289.49408	1367.04810	845.03137	344.27393	1461.49487	822.73486	309.08792	1210.21863	1153.59875	-105.48490	1210.88831	1046.04614	-125.25821	1168.35156	1034.63745	-33.93495	1214.19580	923.22021	-120.57986	1231.39172	805.26318	-98.61880	1153.15271	802.35773	-99.40354	1213.48242	726.30536	-138.81943
2762	11.04400	1225.15039	1424.68115	136.77409	1284.31689	1368.49426	282.14368	1229.06494	1365.22632	-42.61432	1334.30273	1286.78455	109.66110	1322.92908	1171.29053	358.89948	1334.69775	1089.43201	383.33954	1252.39575	1050.99292	363.61136	1375.97375	974.55823	343.26755	1410.25684	873.81281	290.12189	1366.47400	843.86456	345.04181	1461.27100	821.46606	311.09344	1210.19128	1153.63049	-105.49259	1210.87024	1046.07007	-125.26356	1168.34924	1034.66479	-33.95033	1214.17590	923.24957	-120.60217	1231.59973	805.04272	-98.34951	1153.12549	802.38513	-99.42700	1213.56299	726.07147	-138.59605
